<svg width="20" height="20" viewBox="0 0 20 20" fill="none" xmlns="http://www.w3.org/2000/svg">
<path d="M10.417 12.2917H8.33366C7.99199 12.2917 7.70866 12.0083 7.70866 11.6667C7.70866 11.325 7.99199 11.0417 8.33366 11.0417H10.417C12.6003 11.0417 14.3753 9.26667 14.3753 7.08333C14.3753 4.9 12.6003 3.125 10.417 3.125H6.25033C4.06699 3.125 2.29199 4.9 2.29199 7.08333C2.29199 8 2.61699 8.89167 3.20033 9.6C3.41699 9.86667 3.38366 10.2583 3.11699 10.4833C2.85033 10.7 2.45866 10.6667 2.23366 10.4C1.46699 9.46667 1.04199 8.29167 1.04199 7.08333C1.04199 4.20833 3.37533 1.875 6.25033 1.875H10.417C13.292 1.875 15.6253 4.20833 15.6253 7.08333C15.6253 9.95833 13.292 12.2917 10.417 12.2917Z" fill="white"/>
<path d="M13.75 18.125H9.58333C6.70833 18.125 4.375 15.7916 4.375 12.9166C4.375 10.0416 6.70833 7.70831 9.58333 7.70831H11.6667C12.0083 7.70831 12.2917 7.99165 12.2917 8.33331C12.2917 8.67498 12.0083 8.95831 11.6667 8.95831H9.58333C7.4 8.95831 5.625 10.7333 5.625 12.9166C5.625 15.1 7.4 16.875 9.58333 16.875H13.75C15.9333 16.875 17.7083 15.1 17.7083 12.9166C17.7083 12 17.3833 11.1083 16.8 10.4C16.5833 10.1333 16.6167 9.74165 16.8833 9.51665C17.15 9.29165 17.5417 9.33331 17.7667 9.59998C18.5417 10.5333 18.9667 11.7083 18.9667 12.9166C18.9583 15.7916 16.625 18.125 13.75 18.125Z" fill="white"/>
</svg>
