<svg width="24" height="24" viewBox="0 0 24 24" fill="none" xmlns="http://www.w3.org/2000/svg">
<path d="M10.9804 6.19L7.27043 2.48C7.20043 2.41 7.11043 2.35 7.01043 2.31C7.00043 2.31 6.99043 2.31 6.98043 2.3C6.90043 2.27 6.82043 2.25 6.73043 2.25C6.53043 2.25 6.34043 2.33 6.20043 2.47L2.47043 6.19C2.18043 6.48 2.18043 6.96 2.47043 7.25C2.76043 7.54 3.24043 7.54 3.53043 7.25L5.98043 4.8V21C5.98043 21.41 6.32043 21.75 6.73043 21.75C7.14043 21.75 7.48043 21.41 7.48043 21V4.81L9.92043 7.25C10.0704 7.4 10.2604 7.47 10.4504 7.47C10.6404 7.47 10.8304 7.4 10.9804 7.25C11.2704 6.96 11.2704 6.49 10.9804 6.19Z" fill="#016934"/>
<path d="M21.5302 16.75C21.2402 16.46 20.7602 16.46 20.4702 16.75L18.0202 19.2V3C18.0202 2.59 17.6802 2.25 17.2702 2.25C16.8602 2.25 16.5202 2.59 16.5202 3V19.19L14.0802 16.75C13.7902 16.46 13.3102 16.46 13.0202 16.75C12.7302 17.04 12.7302 17.52 13.0202 17.81L16.7302 21.52C16.8002 21.59 16.8902 21.65 16.9902 21.69C17.0002 21.69 17.0102 21.69 17.0202 21.7C17.1002 21.73 17.1902 21.75 17.2802 21.75C17.4802 21.75 17.6702 21.67 17.8102 21.53L21.5302 17.81C21.8202 17.51 21.8202 17.04 21.5302 16.75Z" fill="#016934"/>
</svg>
