<svg width="20" height="20" viewBox="0 0 20 20" fill="none" xmlns="http://www.w3.org/2000/svg">
<path d="M13.1503 1.66669H6.85033C3.70033 1.66669 2.91699 2.50835 2.91699 5.86669V15.25C2.91699 17.4667 4.13366 17.9917 5.60866 16.4084L5.61699 16.4C6.30033 15.675 7.34199 15.7334 7.93366 16.525L8.77533 17.65C9.45033 18.5417 10.542 18.5417 11.217 17.65L12.0587 16.525C12.6587 15.725 13.7003 15.6667 14.3837 16.4C15.867 17.9834 17.0753 17.4584 17.0753 15.2417V5.86669C17.0837 2.50835 16.3003 1.66669 13.1503 1.66669ZM6.48366 10C6.02533 10 5.65033 9.62502 5.65033 9.16669C5.65033 8.70835 6.02533 8.33335 6.48366 8.33335C6.94199 8.33335 7.31699 8.70835 7.31699 9.16669C7.31699 9.62502 6.94199 10 6.48366 10ZM6.48366 6.66669C6.02533 6.66669 5.65033 6.29169 5.65033 5.83335C5.65033 5.37502 6.02533 5.00002 6.48366 5.00002C6.94199 5.00002 7.31699 5.37502 7.31699 5.83335C7.31699 6.29169 6.94199 6.66669 6.48366 6.66669ZM13.5253 9.79169H8.94199C8.60033 9.79169 8.31699 9.50835 8.31699 9.16669C8.31699 8.82502 8.60033 8.54169 8.94199 8.54169H13.5253C13.867 8.54169 14.1503 8.82502 14.1503 9.16669C14.1503 9.50835 13.867 9.79169 13.5253 9.79169ZM13.5253 6.45835H8.94199C8.60033 6.45835 8.31699 6.17502 8.31699 5.83335C8.31699 5.49169 8.60033 5.20835 8.94199 5.20835H13.5253C13.867 5.20835 14.1503 5.49169 14.1503 5.83335C14.1503 6.17502 13.867 6.45835 13.5253 6.45835Z" fill="#016934"/>
</svg>
