<svg width="20" height="20" viewBox="0 0 20 20" fill="none" xmlns="http://www.w3.org/2000/svg">
<path d="M18.3337 17.7083C18.3337 18.05 18.0503 18.3333 17.7087 18.3333H2.29199C1.95033 18.3333 1.66699 18.05 1.66699 17.7083C1.66699 17.3666 1.95033 17.0833 2.29199 17.0833H17.7087C18.0503 17.0833 18.3337 17.3666 18.3337 17.7083Z" fill="#016934"/>
<path d="M12.8245 3.76665L3.87454 12.7167C3.53288 13.0583 2.98288 13.0583 2.64954 12.7167H2.64121C1.48288 11.55 1.48288 9.66665 2.64121 8.50832L8.59954 2.54999C9.76621 1.38332 11.6495 1.38332 12.8162 2.54999C13.1579 2.87499 13.1579 3.43332 12.8245 3.76665Z" fill="#016934"/>
<path d="M17.3499 7.07502L14.8082 4.53335C14.4665 4.19168 13.9165 4.19168 13.5832 4.53335L4.6332 13.4834C4.29154 13.8167 4.29154 14.3667 4.6332 14.7084L7.17487 17.2583C8.34154 18.4167 10.2249 18.4167 11.3915 17.2583L17.3415 11.3C18.5249 10.1334 18.5249 8.24168 17.3499 7.07502ZM10.6332 14.6L9.62487 15.6167C9.41654 15.825 9.07487 15.825 8.8582 15.6167C8.64987 15.4083 8.64987 15.0667 8.8582 14.85L9.87487 13.8334C10.0749 13.6334 10.4249 13.6334 10.6332 13.8334C10.8415 14.0417 10.8415 14.4 10.6332 14.6ZM13.9415 11.2917L11.9082 13.3334C11.6999 13.5333 11.3582 13.5333 11.1415 13.3334C10.9332 13.125 10.9332 12.7833 11.1415 12.5667L13.1832 10.525C13.3832 10.325 13.7332 10.325 13.9415 10.525C14.1499 10.7417 14.1499 11.0834 13.9415 11.2917Z" fill="#016934"/>
</svg>
