<svg width="20" height="20" viewBox="0 0 20 20" fill="none" xmlns="http://www.w3.org/2000/svg">
<path d="M13.5413 18.75C14.3468 18.75 14.9997 18.0971 14.9997 17.2917C14.9997 16.4863 14.3468 15.8333 13.5413 15.8333C12.7359 15.8333 12.083 16.4863 12.083 17.2917C12.083 18.0971 12.7359 18.75 13.5413 18.75Z" fill="#016934"/>
<path d="M6.87533 18.75C7.68074 18.75 8.33366 18.0971 8.33366 17.2917C8.33366 16.4863 7.68074 15.8333 6.87533 15.8333C6.06991 15.8333 5.41699 16.4863 5.41699 17.2917C5.41699 18.0971 6.06991 18.75 6.87533 18.75Z" fill="#016934"/>
<path d="M4.03366 3.28332L3.86699 5.32499C3.83366 5.71666 4.14199 6.04166 4.53366 6.04166H17.292C17.642 6.04166 17.9337 5.77499 17.9587 5.42499C18.067 3.94999 16.942 2.74999 15.467 2.74999H5.22533C5.14199 2.38332 4.97533 2.03332 4.71699 1.74166C4.30033 1.29999 3.71699 1.04166 3.11699 1.04166H1.66699C1.32533 1.04166 1.04199 1.32499 1.04199 1.66666C1.04199 2.00832 1.32533 2.29166 1.66699 2.29166H3.11699C3.37533 2.29166 3.61699 2.39999 3.79199 2.58332C3.96699 2.77499 4.05033 3.02499 4.03366 3.28332Z" fill="#016934"/>
<path d="M17.0914 7.29166H4.30805C3.95805 7.29166 3.67472 7.55832 3.64139 7.89999L3.34139 11.525C3.22472 12.95 4.34139 14.1667 5.76639 14.1667H15.0331C16.2831 14.1667 17.3831 13.1417 17.4747 11.8917L17.7497 7.99999C17.7831 7.61666 17.4831 7.29166 17.0914 7.29166Z" fill="#016934"/>
</svg>
